<?xml version="1.0" encoding="utf-8"?>
<!-- Generator: Adobe Illustrator 25.2.3, SVG Export Plug-In . SVG Version: 6.00 Build 0)  -->
<svg version="1.1" id="Layer_1" xmlns="http://www.w3.org/2000/svg" xmlns:xlink="http://www.w3.org/1999/xlink" x="0px" y="0px"
	 viewBox="0 0 1080 1080" style="enable-background:new 0 0 1080 1080;" xml:space="preserve">
<style type="text/css">
	.st0{display:none;fill:#071F2F;}
	.st1{fill:#FFFFFF;}
	.st2{fill:url(#SVGID_1_);}
	.st3{fill:url(#SVGID_2_);}
	.st4{fill:url(#SVGID_3_);}
	.st5{fill:none;stroke:url(#SVGID_4_);stroke-miterlimit:10;}
</style>
<rect class="st0" width="1080" height="1080"/>
<g>
	<g>
		<path class="st1" d="M455.1,789.3v21.39h-2.17v-17.08l-7.63,17.08h-1.58l-7.63-17.02v17.02h-2.17V789.3h2.29l8.28,18.54
			l8.28-18.54H455.1z"/>
		<path class="st1" d="M493.1,789.02v13.64c0,2.15,0.51,3.74,1.54,4.77c1.02,1.03,2.42,1.55,4.2,1.55s3.17-0.51,4.17-1.53
			c1-1.02,1.5-2.62,1.5-4.79v-13.64h2.17v13.61c0,2.75-0.73,4.82-2.19,6.2c-1.46,1.38-3.35,2.08-5.69,2.08s-4.23-0.69-5.69-2.08
			c-1.46-1.38-2.19-3.45-2.19-6.2v-13.61H493.1z"/>
		<path class="st1" d="M558.85,810.69h-2.17l-12-18.23v18.23h-2.17v-21.67h2.17l12,18.2v-18.2h2.17V810.69z"/>
		<path class="st1" d="M596.95,789.02v21.67h-2.17v-21.67H596.95z"/>
		<path class="st1" d="M644.41,810.69l-5.36-9.05h-4v9.05h-2.17v-21.67h6.51c2.42,0,4.25,0.58,5.5,1.74s1.88,2.68,1.88,4.56
			c0,1.57-0.45,2.91-1.35,4.01s-2.23,1.82-3.98,2.15l5.58,9.21H644.41z M635.05,799.87h4.37c1.69,0,2.97-0.41,3.83-1.24
			c0.86-0.83,1.29-1.93,1.29-3.32c0-1.43-0.41-2.53-1.24-3.3c-0.83-0.77-2.13-1.16-3.91-1.16h-4.34V799.87z"/>
	</g>
</g>
<g>
	<linearGradient id="SVGID_1_" gradientUnits="userSpaceOnUse" x1="392.8538" y1="463.7664" x2="688.0882" y2="463.7664">
		<stop  offset="2.024560e-07" style="stop-color:#5AC8E2"/>
		<stop  offset="1" style="stop-color:#1C75BC"/>
	</linearGradient>
	<path class="st2" d="M417.14,548.75c16.69-19.32,32.78-37.93,49.47-57.25c24.32,28.23,48.36,56.13,73.08,84.83
		c8.63-10.08,16.88-19.7,25.44-29.7c-57.53-66.75-114.65-133.01-172.28-199.87c11.8-13.67,23.28-26.94,34.74-40.22
		c18.59-21.53,37.27-42.99,55.67-64.68c3.26-3.84,6.59-5.36,11.61-5.33c30.79,0.21,61.58-0.06,92.36,0.33
		c3.65,0.05,8.33,2.17,10.73,4.91c29.36,33.49,58.36,67.29,87.53,100.95c2.59,2.99,3.92,5.14,0.67,8.86
		c-23.19,26.54-46.17,53.27-69.23,79.92c-0.48,0.55-1.17,0.92-2.12,1.65c-16.29-18.89-32.53-37.72-49-56.83
		c8.31-9.73,16.43-19.22,24.79-29.01c-16.64-19.32-32.85-38.15-49.73-57.75c-16.55,19.21-32.58,37.82-49.14,57.05
		C549.14,413.25,606.23,479.53,664,546.6c-41.3,47.96-82.57,95.89-124.34,144.4C498.63,643.37,458.13,596.34,417.14,548.75z"/>
	<linearGradient id="SVGID_2_" gradientUnits="userSpaceOnUse" x1="218.819" y1="462.7752" x2="442.1258" y2="462.7752">
		<stop  offset="0" style="stop-color:#959494"/>
		<stop  offset="0.302" style="stop-color:#BAB9B9"/>
		<stop  offset="0.6106" style="stop-color:#E2E2E2"/>
		<stop  offset="0.6847" style="stop-color:#DCDCDC"/>
		<stop  offset="0.7834" style="stop-color:#CCCBCB"/>
		<stop  offset="0.8955" style="stop-color:#B3B2B2"/>
		<stop  offset="1" style="stop-color:#989898"/>
	</linearGradient>
	<path class="st3" d="M367.29,491.26c-15.22,17.64-29.93,34.43-44.3,51.51c-3.71,4.41-7.5,6.45-13.43,6.38
		c-26.98-0.31-53.96-0.14-80.95-0.14c-2.46,0-4.93,0-9.8,0c50.19-58.35,99-115.1,148.48-172.63c24.97,28.97,49.67,57.62,74.83,86.79
		c-16.35,19.01-32.47,37.76-49.22,57.25C384.32,510.65,376.11,501.31,367.29,491.26z"/>
	<linearGradient id="SVGID_3_" gradientUnits="userSpaceOnUse" x1="638.9094" y1="460.9172" x2="861.181" y2="460.9172">
		<stop  offset="0" style="stop-color:#959494"/>
		<stop  offset="0.302" style="stop-color:#BAB9B9"/>
		<stop  offset="0.6106" style="stop-color:#E2E2E2"/>
		<stop  offset="0.6847" style="stop-color:#DCDCDC"/>
		<stop  offset="0.7834" style="stop-color:#CCCBCB"/>
		<stop  offset="0.8955" style="stop-color:#B3B2B2"/>
		<stop  offset="1" style="stop-color:#989898"/>
	</linearGradient>
	<path class="st4" d="M861.18,546.87c-11.96,0-21.72,0-31.48,0c-20.44,0-40.89,0.19-61.32-0.2c-3.24-0.06-7.35-1.94-9.51-4.36
		c-13.55-15.18-26.66-30.76-39.94-46.19c-1.62-1.89-3.39-3.65-5.75-6.18c-8.34,9.45-16.41,18.6-24.98,28.33
		c-16.48-19.1-32.51-37.69-49.29-57.14c24.6-28.55,49.13-57.02,74.28-86.21C762.43,432.12,811.05,488.62,861.18,546.87z"/>
</g>
<g>
	<path class="st1" d="M336.07,757.96c-1.68-0.77-3-1.84-3.96-3.22c-0.96-1.38-1.47-2.91-1.54-4.61h3.55
		c0.16,1.63,0.88,3.06,2.16,4.3c1.28,1.23,3.15,1.85,5.62,1.85c2.27,0,4.07-0.58,5.4-1.75c1.33-1.17,1.99-2.65,1.99-4.44
		c0-1.44-0.37-2.6-1.1-3.48c-0.74-0.88-1.65-1.54-2.74-1.97c-1.09-0.43-2.59-0.9-4.51-1.42c-2.24-0.61-4.02-1.2-5.33-1.78
		s-2.43-1.47-3.36-2.69c-0.93-1.22-1.39-2.86-1.39-4.94c0-1.73,0.45-3.27,1.34-4.63c0.9-1.36,2.16-2.42,3.79-3.19
		c1.63-0.77,3.5-1.15,5.62-1.15c3.1,0,5.61,0.76,7.51,2.28c1.9,1.52,3,3.48,3.29,5.88h-3.65c-0.22-1.38-0.98-2.6-2.26-3.67
		c-1.28-1.07-3.01-1.61-5.18-1.61c-2.02,0-3.7,0.54-5.04,1.61c-1.34,1.07-2.02,2.54-2.02,4.39c0,1.41,0.37,2.54,1.1,3.41
		c0.74,0.86,1.66,1.52,2.76,1.97c1.1,0.45,2.6,0.93,4.49,1.44c2.18,0.61,3.94,1.21,5.28,1.8c1.34,0.59,2.48,1.5,3.41,2.71
		c0.93,1.22,1.39,2.85,1.39,4.9c0,1.57-0.42,3.06-1.25,4.46c-0.83,1.41-2.06,2.54-3.7,3.41s-3.58,1.3-5.86,1.3
		C339.7,759.11,337.75,758.73,336.07,757.96z"/>
	<path class="st1" d="M432.1,725.22v33.55h-3.36v-15.7h-18.19v15.7h-3.36v-33.55h3.36v15.07h18.19v-15.07H432.1z"/>
	<path class="st1" d="M507.22,750.81h-15.26l-2.93,7.97h-3.55l12.24-33.12h3.79l12.19,33.12h-3.55L507.22,750.81z M506.21,748.02
		l-6.62-18.14l-6.62,18.14H506.21z"/>
	<path class="st1" d="M591.98,725.22v33.55h-3.36v-15.7h-18.19v15.7h-3.36v-33.55h3.36v15.07h18.19v-15.07H591.98z"/>
	<path class="st1" d="M667.1,750.81h-15.26l-2.93,7.97h-3.55l12.24-33.12h3.79l12.19,33.12h-3.55L667.1,750.81z M666.1,748.02
		l-6.62-18.14l-6.62,18.14H666.1z"/>
	<path class="st1" d="M747.45,744.33c1.31,1.57,1.97,3.39,1.97,5.47c0,1.7-0.42,3.22-1.27,4.58c-0.85,1.36-2.09,2.43-3.72,3.22
		c-1.63,0.78-3.58,1.18-5.86,1.18h-11.62v-33.55h11.28c3.39,0,5.98,0.78,7.75,2.35c1.78,1.57,2.66,3.6,2.66,6.1
		c0,2.08-0.56,3.77-1.68,5.06c-1.12,1.3-2.56,2.2-4.32,2.71C744.54,741.8,746.14,742.76,747.45,744.33z M730.32,740.05h7.82
		c2.27,0,4.02-0.54,5.26-1.61c1.23-1.07,1.85-2.55,1.85-4.44c0-1.86-0.62-3.31-1.85-4.37c-1.23-1.06-3.03-1.58-5.4-1.58h-7.68
		V740.05z M744.02,754.21c1.36-1.15,2.04-2.74,2.04-4.75c0-2.02-0.71-3.62-2.14-4.82s-3.34-1.8-5.74-1.8h-7.87v13.1h8.02
		C740.77,755.94,742.66,755.37,744.02,754.21z"/>
</g>
<linearGradient id="SVGID_4_" gradientUnits="userSpaceOnUse" x1="403.514" y1="774.8589" x2="666.0952" y2="774.8589">
	<stop  offset="5.028410e-03" style="stop-color:#071F2F"/>
	<stop  offset="0.3575" style="stop-color:#5AC8E2"/>
	<stop  offset="0.6782" style="stop-color:#1C75BC"/>
	<stop  offset="1" style="stop-color:#122D3C"/>
</linearGradient>
<line class="st5" x1="403.51" y1="774.86" x2="666.1" y2="774.86"/>
</svg>
